<?xml version="1.0" standalone="no"?>
<!DOCTYPE svg PUBLIC "-//W3C//DTD SVG 20010904//EN"
 "http://www.w3.org/TR/2001/REC-SVG-20010904/DTD/svg10.dtd">
<svg version="1.0" xmlns="http://www.w3.org/2000/svg"
 width="700.000000pt" height="700.000000pt" viewBox="0 0 700.000000 700.000000"
 preserveAspectRatio="xMidYMid meet">
<metadata>
Created by potrace 1.11, written by Peter Selinger 2001-2013
</metadata>
<g transform="translate(0.000000,700.000000) scale(0.100000,-0.100000)"
fill="#000000" stroke="none">
<path d="M3500 6530 l0 -470 1286 -2 1287 -3 20 -26 c38 -52 39 -158 1 -216
l-14 -23 -1290 0 -1290 0 0 -470 0 -470 1328 0 c864 0 1349 4 1391 10 229 38
445 163 575 333 140 186 199 402 199 732 0 203 -15 312 -64 468 -93 292 -334
507 -654 584 -64 16 -193 17 -1422 20 l-1353 4 0 -471z"/>
<path d="M3500 4100 l0 -470 1293 -2 1292 -3 19 -39 c35 -71 17 -189 -33 -216
-13 -7 -440 -10 -1295 -10 l-1276 0 0 -470 0 -471 1343 4 c1466 4 1385 1 1557
62 257 93 443 284 528 545 95 290 87 715 -17 986 -100 260 -311 446 -596 526
l-80 23 -1367 3 -1368 2 0 -470z"/>
<path d="M830 3359 c-98 -9 -238 -48 -313 -85 -155 -78 -299 -211 -374 -346
-109 -197 -159 -489 -134 -784 24 -282 105 -492 250 -647 99 -107 266 -204
426 -249 l80 -23 1598 -3 c1550 -2 1598 -2 1585 16 -7 10 -172 222 -367 470
l-353 452 -1154 0 -1154 0 -16 25 c-43 65 -36 186 13 225 25 20 37 20 1169 20
l1144 0 0 470 0 470 -1157 -1 c-637 -1 -1196 -5 -1243 -10z"/>
<path d="M3519 2133 c6 -10 169 -220 364 -468 l353 -450 922 -3 922 -2 14 -23
c40 -60 36 -179 -6 -224 l-21 -23 -1284 0 -1283 0 0 -470 0 -471 1348 4 c1475
3 1389 0 1558 61 147 54 306 171 396 294 86 116 150 287 179 477 15 101 15
375 0 482 -40 281 -142 480 -318 623 -90 73 -178 123 -274 156 -163 55 -132
54 -1561 54 -1253 0 -1318 -1 -1309 -17z"/>
</g>
</svg>
