<svg xmlns="http://www.w3.org/2000/svg" width="1000" height="1000.4" viewBox="0 0 1000 1000.4"><style>.st0{fill:none;} .st1{fill:#FFFFFF;}</style><path d="M0 .4h1000v1000H0z"/><path class="st0" d="M500 0h500v311H500zM300 584.7c-2 0-3.5 1.2-4.5 3.6-1 2.4-1.5 4.7-1.5 6.9s.5 4.5 1.5 6.9c1 2.4 2.5 3.6 4.5 3.6M704.6 507c1-2.4 1.5-4.7 1.5-6.9s-.5-4.5-1.5-6.9c-1-2.4-2.5-3.6-4.5-3.6H500V510.5h200c2 .1 3.6-1.1 4.6-3.5z"/><path class="st1" d="M753.5 373.5c14.1-14 21.2-35.1 21.2-63.5s-7.1-49.7-21.2-63.6c-14.1-14-31.9-21-53.4-21H500v74.1h200c2 0 3.5 1.2 4.5 3.6 1 2.4 1.5 4.7 1.5 6.9s-.5 4.5-1.5 6.9c-1 2.4-2.5 3.6-4.5 3.6H500v74h200c21.4 0 39.3-7 53.5-21zM700 489.7c2 0 3.5 1.2 4.5 3.6 1 2.4 1.5 4.7 1.5 6.9s-.5 4.5-1.5 6.9c-1 2.4-2.5 3.6-4.5 3.6H500v74h200c21.4 0 39.3-7 53.4-21 14.1-14 21.2-35.1 21.2-63.5s-7.1-49.7-21.2-63.6c-14.1-14-31.9-21-53.4-21H500v74.1h200z"/><path class="st1" d="M300 605.6c-2 0-3.5-1.2-4.5-3.6-1-2.4-1.5-4.7-1.5-6.9s.5-4.5 1.5-6.9c1-2.4 2.5-3.6 4.5-3.6h179v-74.1H300c-21.5 0-39.3 7-53.4 21-14.1 14-21.2 35.3-21.2 63.6s7.1 49.6 21.2 63.5c14.1 14 32 21 53.4 21l236.8-.1-57.8-73.9H300z"/><path class="st1" d="M557.8 679.8l142.2.1c2 0 3.5 1.2 4.5 3.6 1 2.4 1.5 4.7 1.5 6.9s-.5 4.5-1.5 6.9c-1 2.4-2.5 3.6-4.5 3.6H500v74h200c21.4 0 39.3-7 53.4-21 14.1-14 21.2-35.1 21.2-63.5s-7.1-49.7-21.2-63.6c-14.1-14-31.9-21-53.4-21H500l57.8 74z"/></svg>