<?xml version="1.0" encoding="utf-8"?>
<!-- Generator: Adobe Illustrator 19.2.0, SVG Export Plug-In . SVG Version: 6.00 Build 0)  -->
<svg version="1.1" id="Layer_1" xmlns="http://www.w3.org/2000/svg" xmlns:xlink="http://www.w3.org/1999/xlink" x="0px" y="0px"
	 viewBox="0 0 1000 1000.4" style="enable-background:new 0 0 1000 1000.4;" xml:space="preserve">
<path d="M961.4,269.6c25.7-25.5,38.6-63.9,38.6-115.6s-12.9-90.5-38.6-115.8C935.8,12.7,903.3,0,864.2,0H499.9v134.9H864
	c3.6,0,6.4,2.2,8.2,6.6c1.8,4.4,2.7,8.6,2.7,12.6c0,4-0.9,8.2-2.7,12.6c-1.8,4.4-4.6,6.6-8.2,6.6H499.9v134.7H864
	C903,307.9,935.6,295.1,961.4,269.6z M864,481.2c3.6,0,6.4,2.2,8.2,6.6c1.8,4.4,2.7,8.6,2.7,12.6s-0.9,8.2-2.7,12.6
	c-1.8,4.4-4.6,6.6-8.2,6.6H499.9v134.7H864c39,0,71.5-12.7,97.2-38.2c25.7-25.5,38.6-63.9,38.6-115.6s-12.9-90.5-38.6-115.8
	c-25.7-25.5-58.1-38.2-97.2-38.2H499.9v134.9H864z"/>
<path d="M135.8,692.2c-3.6,0-6.4-2.2-8.2-6.6c-1.8-4.4-2.7-8.6-2.7-12.6s0.9-8.2,2.7-12.6c1.8-4.4,4.6-6.6,8.2-6.6h325.9V519H135.8
	c-39.1,0-71.5,12.7-97.2,38.2S0,621.5,0,673.1s12.9,90.3,38.6,115.6c25.7,25.5,58.3,38.2,97.2,38.2l431.1-0.2L461.7,692.2H135.8z"/>
<path d="M605.1,827.2l258.9,0.2c3.6,0,6.4,2.2,8.2,6.6c1.8,4.4,2.7,8.6,2.7,12.6s-0.9,8.2-2.7,12.6c-1.8,4.4-4.6,6.6-8.2,6.6H499.9
	v134.7H864c39,0,71.5-12.7,97.2-38.2c25.7-25.5,38.6-63.9,38.6-115.6s-12.9-90.5-38.6-115.8c-25.7-25.5-58.1-38.2-97.2-38.2H499.9
	L605.1,827.2z"/>
</svg>
